<?xml version="1.0" encoding="utf-8"?>
<!-- Generator: Adobe Illustrator 27.5.0, SVG Export Plug-In . SVG Version: 6.00 Build 0)  -->
<svg version="1.1" xmlns="http://www.w3.org/2000/svg" xmlns:xlink="http://www.w3.org/1999/xlink" x="0px" y="0px"
	 viewBox="0 0 750 500" style="enable-background:new 0 0 750 500;" xml:space="preserve">
<g id="BACKGROUND">
	<rect style="fill:#00213E;" width="750" height="500"/>
</g>
<g id="OBJECTS">
	<g>
		<defs>
			<rect id="SVGID_1_" width="750" height="500"/>
		</defs>
		<clipPath id="SVGID_00000091731313822600315940000014780445116706640564_">
			<use xlink:href="#SVGID_1_"  style="overflow:visible;"/>
		</clipPath>
		<g style="clip-path:url(#SVGID_00000091731313822600315940000014780445116706640564_);">
			<g>
				<g>
					<path style="fill:none;stroke:#84EBFE;stroke-width:0.3;stroke-miterlimit:10;" d="M334.022,490.572
						c30.799-31.108,60.995-83.656,109.674-83.955c33.79-0.208,70.991,21.391,104.343,8.806
						c33.554-12.661,45.705-57.858,67.315-83.207c12.767-14.975,31.181-19.694,43.215-35.134
						c17.811-22.852,26.616-54.1,40.304-79.393c29.588-17.539,61.357,4.574,86.186,20.842c31.646,20.733,61.661,45.861,98.556,56.42
						c-42.222,6.833-76.396-23.145-117.672-22.072c-38.208,0.994-54.798,44.901-74.055,71.198
						c-17.877,24.412-45.469,31.499-59.956,58.623c-14.558,27.256-23.092,81.231-55.808,93.509
						c-30.646,11.501-69.588-17.818-97.438-26.92c-35.895-11.732-54.735,3.145-75.42,33.106
						c-17.349,25.129-45.32,96.999-84.888,89.722c-43.321-7.967-60.82-65.013-108.278-63.008c23.922-17.99,38.756-3.143,63.681,5
						C307.104,544.995,319.292,516.281,334.022,490.572z"/>
					<path style="fill:none;stroke:#84EBFE;stroke-width:0.3;stroke-miterlimit:10;" d="M216.367,523.549
						c23.125,5.5,37.885,19.203,55.594,34.479c13.564,11.701,32.19,31.472,52.114,30.437c34.665-1.801,57.29-59.712,73.557-84.278
						c9.968-15.053,21.977-35.06,39.784-42.045c15.121-5.932,32.442-0.039,46.729,5.277c26.076,9.703,61.422,34.72,90.315,23.993
						c30.71-11.402,39.702-59.563,52.353-85.824c8.535-17.717,16.637-26.349,31.97-37.397c12.237-8.817,21.526-15.322,30.887-27.723
						c18.252-24.176,33.51-65.568,67.234-71.381c39.037-6.729,77.785,23.296,117.261,23.285"/>
					<path style="fill:none;stroke:#84EBFE;stroke-width:0.3;stroke-miterlimit:10;" d="M222.59,520.49
						c21.577,9.666,37.031,24.42,54.965,39.494c13.107,11.016,31.225,28.055,50.31,23.552c33.688-7.948,53.949-62.63,71.53-88.382
						c9.655-14.142,21.583-32.735,39.09-38.059c15.26-4.641,32.187,1.54,46.301,6.949c25.415,9.74,59.971,33.682,88.224,23.203
						c30.038-11.141,39.186-57.799,51.303-83.605c7.886-16.796,15.686-27.933,30.52-38.703
						c11.733-8.518,21.371-13.336,30.841-25.272c18.74-23.62,32.799-64.112,64.429-73.579
						c35.867-10.735,78.974,18.397,114.575,22.519"/>
					<path style="fill:none;stroke:#84EBFE;stroke-width:0.3;stroke-miterlimit:10;" d="M228.726,519.313
						c19.714,11.904,35.429,27.277,53.304,41.599c13.092,10.489,29.952,24.083,47.945,17.429
						c18.034-6.669,30.627-28.754,40.468-43.774c12.53-19.124,23.424-39.564,37.697-57.503
						c21.264-26.726,42.124-29.336,72.722-17.996c25.679,9.517,62.226,35.308,90.895,24.576
						c30.621-11.463,39.87-60.721,52.428-86.704c5.169-10.694,11.577-23.123,20.97-30.882c11.678-9.646,24.35-12.696,34.788-24.783
						c20.734-24.013,33.686-65.547,65.27-77.98c33.435-13.161,77.403,14.199,110.038,20.699"/>
					<path style="fill:none;stroke:#84EBFE;stroke-width:0.3;stroke-miterlimit:10;" d="M234.74,519.515
						c23.754,17.089,65.084,71.252,98.609,52.64c35.952-19.958,50.467-73.584,75.739-104.068
						c21.328-25.726,43.339-24.876,72.13-13.017c25.119,10.346,61.067,36.902,89.706,26.179
						c30.052-11.252,39.321-59.2,51.324-84.838c4.997-10.674,11.151-23.371,20.09-31.48c10.744-9.746,24.035-12.541,34.227-23.745
						c21.853-24.024,32.789-63.719,62.747-79.595c31.62-16.757,75.744,9.194,106.644,17.215"/>
					<path style="fill:none;stroke:#84EBFE;stroke-width:0.3;stroke-miterlimit:10;" d="M240.607,520.69
						c23.166,18.522,62.959,69.596,95.841,44.508c34.186-26.084,45.364-76.035,72.587-108.327
						c50.139-59.477,106.542,44.568,162.061,24.872c29.405-10.432,38.913-58.617,50.121-83.467
						c4.852-10.757,10.707-23.603,19.218-32.132c9.951-9.971,23.475-12.947,33.461-23.411c23.08-24.184,31.74-62.751,60.001-82.09
						c29.918-20.473,72.945,3.597,102.956,12.623"/>
					<path style="fill:none;stroke:#84EBFE;stroke-width:0.3;stroke-miterlimit:10;" d="M246.306,522.507
						c23.062,19.584,60.23,65.484,91.751,36.289c31.721-29.38,41.743-76.849,68.651-110.12
						c49.855-61.644,108.769,51.934,164.441,33.218c26.821-9.017,36.308-50.789,45.805-73.764
						c5.931-14.348,12.241-32.32,24.037-43.136c10.108-9.268,22.683-12.428,32.281-22.788
						c22.642-24.438,30.449-61.567,56.756-82.813c28.13-22.719,68.658-1.39,97.95,8.159"/>
					<path style="fill:none;stroke:#84EBFE;stroke-width:0.3;stroke-miterlimit:10;" d="M251.826,524.7
						c25.583,22.358,59.408,60.714,90.173,25.139c28.627-33.104,37.492-79.985,67.473-112.046
						c48.509-51.876,108.443,60.572,161.239,42.839c28.275-9.497,37.929-56.635,48.031-80.378
						c4.676-10.989,9.983-23.655,17.719-32.97c8.991-10.826,21.644-13.89,31.972-22.922c25.48-22.283,32.191-59.952,55.805-83.994
						c26.576-27.058,64.921-8.787,95.134,1.439"/>
					<path style="fill:none;stroke:#84EBFE;stroke-width:0.3;stroke-miterlimit:10;" d="M257.155,527.056
						c27.981,24.502,58.092,53.241,87.399,14.806c25.503-33.446,34.958-81.123,66.026-110.218
						c48.44-45.364,106.688,58.289,158.171,43.352c27.197-7.891,38.383-51.274,48.696-73.504
						c4.953-10.675,10.342-22.435,17.76-31.705c9.016-11.267,20.655-14.008,31.293-22.813c26.014-21.529,32.334-60.439,53.44-86.015
						c24.59-29.798,60.205-15.303,91.108-4.816"/>
					<path style="fill:none;stroke:#84EBFE;stroke-width:0.3;stroke-miterlimit:10;" d="M262.288,529.404
						c12.961,11.105,28.966,27.952,47.127,29.834c18.151,1.881,29.722-13.972,38.636-27.301
						c21.189-31.683,32.113-70.894,57.303-99.888c46.202-53.178,108.724,45.752,160.531,34.583
						c25.31-5.457,37.664-38.567,48.572-58.764c6.966-12.898,14.168-28.051,25.297-38.009c8.626-7.718,19.407-10.877,27.922-18.607
						c24.299-22.059,30.416-59.745,47.779-86.695c22.147-34.375,54.056-24.964,87.572-13.909"/>
					<path style="fill:none;stroke:#84EBFE;stroke-width:0.3;stroke-miterlimit:10;" d="M267.222,531.608
						c12.191,9.989,28.89,26.625,46.474,24.838c18.121-1.841,29.278-20.917,37.667-34.787c18.48-30.558,30.294-73.207,57.026-98.108
						c45.323-42.217,105.773,42.868,154.791,35.423c23.162-3.517,36.345-27.944,47.938-45.854
						c7.836-12.106,15.469-25.69,26.176-35.577c9.781-9.033,22.567-12.066,31.872-21.319c22.396-22.273,28.423-59.671,42.41-86.827
						c19.634-38.121,46.751-35.503,83.746-24.003"/>
					<path style="fill:none;stroke:#84EBFE;stroke-width:0.3;stroke-miterlimit:10;" d="M271.956,533.563
						c12.346,9.442,28.533,24.031,45.774,19.129c17.669-5.024,28.667-26.92,36.816-41.431c16.835-29.975,28.64-73.872,56.979-94.994
						c44.251-32.983,103.492,40.621,149.607,36.58c24.621-2.157,39.125-27.148,52.576-44.954c6.429-8.51,12.69-17.581,20.323-25.099
						c9.793-9.644,21.712-12.65,31.972-21.001c23.821-19.392,30.168-60.575,41.883-87.477c6.588-15.128,14.453-32.456,31.005-38.763
						c15.433-5.881,34.203,0.677,49.044,4.877"/>
					<path style="fill:none;stroke:#84EBFE;stroke-width:0.3;stroke-miterlimit:10;" d="M276.491,535.186
						c13.2,9.167,28.228,20.783,45.012,12.727c14.991-7.196,24.057-25.665,31.981-39.214c16.284-27.842,30.994-81.104,61.839-96.898
						c47.925-24.541,97.129,40.926,144.691,38.066c22.488-1.352,36.839-23.373,49.255-39.363
						c8.725-11.235,16.772-23.698,27.576-33.129c7.472-6.522,16.748-9.234,24.401-14.897c25.46-18.843,31.723-56.09,42.847-83.96
						c6.129-15.356,13.472-35.478,29.115-43.85c14.632-7.831,32.821-2.531,47.658,1.129"/>
					<path style="fill:none;stroke:#84EBFE;stroke-width:0.3;stroke-miterlimit:10;" d="M280.83,536.416
						c14.626,8.912,28.177,16.805,44.269,5.99c12.036-8.089,20.287-22.041,27.837-34.125c17.619-28.198,31.301-69.823,59.336-89.839
						c43.342-30.945,102.364,28.489,146.746,28.13c22.41-0.181,36.617-22.15,48.872-38.141
						c16.326-21.302,30.587-34.286,52.33-49.061c25.832-17.553,32.016-56.67,43.138-83.822
						c14.98-36.571,30.424-52.176,70.762-44.024"/>
					<path style="fill:none;stroke:#84EBFE;stroke-width:0.3;stroke-miterlimit:10;" d="M284.975,537.206
						c67.626,34.5,85.621-91.294,133.555-115.669c45.701-23.239,94.129,22.532,139.353,22.201
						c22.528-0.164,36.304-21.191,48.662-37.359c6.767-8.852,13.267-18.184,20.851-26.378c10.031-10.839,20.96-14.569,32.151-22.899
						c25.621-19.071,31.841-56.911,43.081-84.822c13.319-33.076,27.781-50.218,65.06-44.652"/>
					<path style="fill:none;stroke:#84EBFE;stroke-width:0.3;stroke-miterlimit:10;" d="M288.931,537.523
						c64.796,25.56,85.94-93.955,138.097-113.031c43.978-16.085,86.812,15.409,129.824,16.28
						c21.229,0.43,33.904-17.761,45.872-33.105c15.463-19.825,28.683-36.576,49.633-50.206
						c27.959-18.19,34.669-48.895,46.106-79.087c12.282-32.422,24.277-57.61,63.103-54.247"/>
					<path style="fill:none;stroke:#84EBFE;stroke-width:0.3;stroke-miterlimit:10;" d="M292.702,537.345
						c59.858,16.044,83.577-86.296,130.573-107.932c22.18-10.211,50.373-6.781,73.721-3.262
						c19.113,2.881,40.021,11.786,59.142,11.824c21.306,0.042,33.212-16.399,45.402-32.188
						c15.276-19.785,28.705-37.61,50.264-50.784c50.138-30.638,33.736-135.149,103.946-133.979"/>
					<path style="fill:none;stroke:#84EBFE;stroke-width:0.3;stroke-miterlimit:10;" d="M296.295,536.659
						c60.522,7.538,80.356-93.137,133.162-110.585c20.574-6.798,44.479-4.493,65.578-1.867c19.273,2.399,41.11,11.301,60.282,11.363
						c21.872,0.07,33.694-17.065,46.273-33.41c14.582-18.947,27.32-35.748,47.474-48.79c24.099-15.594,32.225-37.36,42.13-64.346
						c11.54-31.44,20.316-68.202,59.036-70.705"/>
					<path style="fill:none;stroke:#84EBFE;stroke-width:0.3;stroke-miterlimit:10;" d="M299.714,535.46
						c59.825-1.697,75.1-92.154,128.921-110.25c42.62-14.33,83.804,9.858,125.903,8.903c38.73-0.878,60.336-61.229,89.707-81.015
						c9.615-6.478,18.101-8.987,25.073-18.987c8.556-12.272,13.548-26.958,18.736-40.875c11.525-30.921,19.393-71.452,56.947-77.222
						"/>
					<path style="fill:none;stroke:#84EBFE;stroke-width:0.3;stroke-miterlimit:10;" d="M302.965,533.747
						c57.554-10.981,71.098-90.198,124.875-108.909c41.793-14.542,84.74,11.586,126.488,8.156
						c39.919-3.279,57.661-62.811,89.753-82.123c25.753-15.497,33.041-33.132,43.789-61.506
						c10.934-28.867,18.522-66.615,52.18-75.262"/>
					<path style="fill:none;stroke:#84EBFE;stroke-width:0.3;stroke-miterlimit:10;" d="M306.054,531.524
						c54.366-18.296,70.351-93.27,125.964-107.854c40.813-10.703,81.531,15.194,121.923,8.729
						c39.174-6.27,58.644-63.068,89.929-84.223c10.033-6.784,17.685-8.859,25.112-20.174c6.97-10.619,11.285-22.889,15.859-34.632
						c11.345-29.129,18.4-68.297,50.527-80.791"/>
					<path style="fill:none;stroke:#84EBFE;stroke-width:0.3;stroke-miterlimit:10;" d="M308.987,528.8
						c49.455-22.568,70.639-93.446,124.79-105.439c40.018-8.863,80.413,17.324,119.892,8.256
						c38.786-8.909,52.665-60.774,83.465-81.818c9.765-6.672,18.8-8.242,26.731-17.652c9.392-11.144,15.135-27.242,20.22-40.564
						c11.109-29.106,17.859-64.071,46.862-80.153"/>
					<path style="fill:none;stroke:#84EBFE;stroke-width:0.3;stroke-miterlimit:10;" d="M311.785,525.63
						c45.157-24.628,69.413-90.573,120.839-102.844c40.031-9.553,81.063,19.304,120.651,7.56
						c39.056-11.586,51.455-61.682,83.986-82.868c7.508-4.89,16.154-7.36,22.743-13.73c9.99-9.659,16.178-25.805,21.143-38.276
						c11.949-30.017,18.429-64.759,45.639-84.796"/>
					<path style="fill:none;stroke:#84EBFE;stroke-width:0.3;stroke-miterlimit:10;" d="M314.502,522.184
						c41.621-26.001,69.15-90.835,119.324-101.012c39.522-8.016,79.812,21.353,118.87,7.631
						c38.14-13.399,50.309-60.956,82.519-82.462c7.173-4.789,15.987-7.179,22.53-12.986c10.085-8.949,16.379-24.242,21.321-36.263
						c12.461-30.303,18.883-63.855,43.848-86.682"/>
					<path style="fill:none;stroke:#84EBFE;stroke-width:0.3;stroke-miterlimit:10;" d="M317.154,518.551
						c39.324-27.399,69.563-93.213,120.181-99.819c38.132-4.977,77.104,21.469,114.778,8.41
						c38.282-13.27,50.876-62.066,82.946-83.993c7.484-5.117,15.831-7.457,22.668-13.593c8.639-7.752,13.659-18.916,18.288-29.378
						c13.628-30.8,20.107-64.069,43.31-89.539"/>
					<path style="fill:none;stroke:#84EBFE;stroke-width:0.3;stroke-miterlimit:10;" d="M319.744,514.774
						c38.08-28.96,69.399-94.079,121.189-98.188c36.621-2.905,74.334,21.402,110.477,8.53c37.4-13.319,48.932-59.959,79.044-82.703
						c18.257-13.79,31.296-17.676,42.229-40.116c14.975-30.734,21.619-63.928,43.266-91.13"/>
					<path style="fill:none;stroke:#84EBFE;stroke-width:0.3;stroke-miterlimit:10;" d="M322.272,510.881
						c36.427-29.688,68.161-93.107,119.582-96.123c35.969-2.109,73.459,21.381,108.939,8.582
						c37.125-13.393,48.032-60.25,77.174-83.594c16.95-13.578,31.171-17.078,42.158-37.984
						c15.641-29.763,22.695-62.282,42.616-89.879"/>
					<path style="fill:none;stroke:#84EBFE;stroke-width:0.3;stroke-miterlimit:10;" d="M324.739,506.901
						c33.891-29.331,66.401-90.713,115.462-93.648c36.02-2.155,74.592,21.315,110.067,8.58
						c35.409-12.711,47.395-58.943,73.166-82.881c17.867-16.596,34.265-19.692,46.569-43.14
						c14.412-27.466,22.33-57.041,39.678-83.074"/>
					<path style="fill:none;stroke:#84EBFE;stroke-width:0.3;stroke-miterlimit:10;" d="M327.146,502.859
						c32.773-29.762,65.097-89.334,113.96-91.337c35.34-1.449,73.781,21.313,108.582,8.641c34.975-12.735,46.84-59.281,71.45-83.69
						c16.496-16.361,34.055-19.669,46.318-41.37c14.914-26.392,23.1-55.553,39.301-81.384"/>
					<path style="fill:none;stroke:#84EBFE;stroke-width:0.3;stroke-miterlimit:10;" d="M329.494,498.778
						c31.405-29.754,62.46-86.051,109.806-89.004c35.989-2.245,74.415,21.796,109.734,8.508
						c35.598-13.393,46.575-60.682,71.916-85.707c14.586-14.404,31.285-18.327,43.077-36.505
						c16.365-25.229,24.555-55.306,39.948-81.228"/>
					<path style="fill:none;stroke:#84EBFE;stroke-width:0.3;stroke-miterlimit:10;" d="M331.786,494.677
						c30.57-29.965,61.264-84.46,108.411-86.527c35.398-1.552,73.532,21.672,108.29,8.559
						c35.204-13.282,46.161-60.457,70.504-85.767c13.671-14.214,31.019-18.498,42.726-35.32
						c16.72-24.026,25.202-54.046,39.624-79.476"/>
					<path style="fill:none;stroke:#84EBFE;stroke-width:0.3;stroke-miterlimit:10;" d="M690.278,233.712
						c26.416-18.361,46.318-15.742,73.792-0.161c33.264,18.865,62.795,43.621,95.762,63.035"/>
					<path style="fill:none;stroke:#84EBFE;stroke-width:0.3;stroke-miterlimit:10;" d="M682.239,251.334
						c22.062-12.643,35.848-27.821,62.451-18.133c32.541,11.85,60.862,37.07,88.587,57.045"/>
					<path style="fill:none;stroke:#84EBFE;stroke-width:0.3;stroke-miterlimit:10;" d="M674.276,269.18
						c20.923-5.203,31.266-27.662,53.762-28.476c27.674-1.003,57.251,25.442,77.677,40.313"/>
					<path style="fill:none;stroke:#84EBFE;stroke-width:0.3;stroke-miterlimit:10;" d="M665.913,285.872
						c22.339-0.775,30.283-18.063,48.884-27.859c22.518-11.858,44.729,4.069,64.12,15.968"/>
					<path style="fill:none;stroke:#84EBFE;stroke-width:0.3;stroke-miterlimit:10;" d="M656.671,300.037
						c20.778,6.93,32.167-3.934,47.246-17.921c5.58-5.176,7.08-10.615,14.925-13.428c11.281-4.044,25.605,1.989,35.808,5.538"/>
					<path style="fill:none;stroke:#84EBFE;stroke-width:0.3;stroke-miterlimit:10;" d="M646.072,310.297
						c17.01,11.688,32.265,15.658,47.452-2.676c5.623-6.788,6.143-14.069,13.311-18.832c7.506-4.987,19.439-3.451,27.491-2.976"/>
					<path style="fill:none;stroke:#84EBFE;stroke-width:0.3;stroke-miterlimit:10;" d="M633.93,316.12
						c7.904,7.623,33.843,34.04,49.781,18.671c-0.469-10.478,3.429-18.465,11.692-23.959c6.662-4.033,13.886-5.562,21.674-4.587"/>
					<path style="fill:none;stroke:#84EBFE;stroke-width:0.3;stroke-miterlimit:10;" d="M622.597,324.268
						c9.673,9.228,31.901,34.602,47.532,26.851c6.04-3.41,9.086-9.063,9.138-16.96c6.494-5.271,13.785-6.509,21.872-3.714"/>
					<path style="fill:none;stroke:#84EBFE;stroke-width:0.3;stroke-miterlimit:10;" d="M612.391,335.66
						c7.108,6.731,29.49,30.516,42.418,26.836c6.236,0.295,9.207-3.666,8.913-11.886c7.315-3.334,14.322-2.428,21.02,2.719"/>
					<path style="fill:none;stroke:#84EBFE;stroke-width:0.3;stroke-miterlimit:10;" d="M602.943,349.234
						c13.285,12.848,20.997,19.911,37.272,27.249c4.069-23.631,7.653-20.497,25.904-6.673"/>
					<path style="fill:none;stroke:#84EBFE;stroke-width:0.3;stroke-miterlimit:10;" d="M593.885,363.927
						c7.338,8.244,18.353,26.772,29.755,22.787c16.119-5.634-1.552-17.919,22.344-4.775"/>
					<path style="fill:none;stroke:#84EBFE;stroke-width:0.3;stroke-miterlimit:10;" d="M584.847,378.678
						c5.515,7.691,15.534,28.764,25.756,27.855c13.186-1.173,2.645-10.258,19.5-0.227"/>
					<path style="fill:none;stroke:#84EBFE;stroke-width:0.3;stroke-miterlimit:10;" d="M575.459,392.424
						c7.466,11.815,10.37,27.778,23.105,34.035c9.533,4.683,9.591,1.651,17.976,10.884"/>
					<path style="fill:none;stroke:#84EBFE;stroke-width:0.3;stroke-miterlimit:10;" d="M565.353,404.103
						c7.407,13.537,10.404,25.555,19.174,38.33c6.642,9.676,12.72,15.933,18.232,25.315"/>
					<path style="fill:none;stroke:#84EBFE;stroke-width:0.3;stroke-miterlimit:10;" d="M554.16,412.653
						c10.64,25.85,21.359,51.684,32.061,77.571"/>
					<path style="fill:none;stroke:#84EBFE;stroke-width:0.3;stroke-miterlimit:10;" d="M541.581,417.212
						c7.64,26.767,15.343,53.868,23.059,80.96"/>
					<path style="fill:none;stroke:#84EBFE;stroke-width:0.3;stroke-miterlimit:10;" d="M527.927,418.628
						c-2.691,10.804-0.931,14.848,5.278,12.131c-2.829,20.18,2.605,42.823,5.5,62.707"/>
					<path style="fill:none;stroke:#84EBFE;stroke-width:0.3;stroke-miterlimit:10;" d="M513.507,417.796
						c0.248,4.348,0.497,8.696,0.745,13.043c2.824-2.799,2.247-2.362-1.729,1.309c-5.576,3.276-6.263,8.432-2.061,15.467
						c1.313,11.819,0.415,22.817,0.072,34.63"/>
					<path style="fill:none;stroke:#84EBFE;stroke-width:0.3;stroke-miterlimit:10;" d="M498.581,415.481
						c-0.475,3.898-0.949,7.797-1.423,11.696c-14.852-9.915-13.916,36.337-14.972,43.333"/>
					<path style="fill:none;stroke:#84EBFE;stroke-width:0.3;stroke-miterlimit:10;" d="M483.409,412.443
						c-5.357,17.892-5.494,12.715-21.282,1.555c-2.633,17.05-2.352,33.482-6.409,50.252"/>
					<path style="fill:none;stroke:#84EBFE;stroke-width:0.3;stroke-miterlimit:10;" d="M468.251,409.447
						c-11.93,27.347-7.109-1.838-25.984,4.177c-12.339,3.932-6.677,43.203-9.317,55.968"/>
					<path style="fill:none;stroke:#84EBFE;stroke-width:0.3;stroke-miterlimit:10;" d="M453.367,407.255
						c-0.781,3.081-7.7,16.008-13.408,16.366c-8.672,0.544-9.201-12.476-17.533-10.292c-8.071,2.115-8.421,66.377-10.433,76.962"/>
					<path style="fill:none;stroke:#84EBFE;stroke-width:0.3;stroke-miterlimit:10;" d="M439.018,406.63
						c-3.236,6.312-6.303,14.768-12.31,18.56c-9.983,6.302-11.155,2.287-19.062-5.046c-7.833,10.646-7.8,26.996-8.809,39.883
						c-1.685,21.533-3.071,39.175-7.247,60.388"/>
					<path style="fill:none;stroke:#84EBFE;stroke-width:0.3;stroke-miterlimit:10;" d="M425.462,408.335
						c-5.103,10.078-8.144,22.303-17.872,29.277c-1.924,5.712-4.891,7.038-8.9,3.978c-3.5-2.639-6.726-2.012-9.68,1.883
						c-5.907,6.066-5.759,32.941-6.909,42.589c-2.709,22.737-5.648,44.052-10.803,66.418"/>
					<path style="fill:none;stroke:#84EBFE;stroke-width:0.3;stroke-miterlimit:10;" d="M412.691,413.304
						c-5.683,12.483-10.33,24.156-17.94,35.529c-6.555,9.797-15.618,13.04-20.655,22.463c-7.259,13.581-7.457,39.303-9.952,54.54
						c-2.994,18.286-7.866,35.512-13.462,53.156"/>
					<path style="fill:none;stroke:#84EBFE;stroke-width:0.3;stroke-miterlimit:10;" d="M399.801,422.21
						c-6.376,15.108-13.03,29.5-20.381,44.067c-6.098,12.083-15.492,21.793-20.095,34.21
						c-11.361,30.653-11.528,63.672-30.035,91.957"/>
					<path style="fill:none;stroke:#84EBFE;stroke-width:0.3;stroke-miterlimit:10;" d="M386.744,434.112
						c-12.911,30.896-31.86,61.126-42.505,92.539c-6.748,19.912-13.207,55.095-37.994,60.714"/>
					<path style="fill:none;stroke:#84EBFE;stroke-width:0.3;stroke-miterlimit:10;" d="M373.579,447.956
						c-14.01,32.88-28.627,65.499-45.245,97.139c-10.421,19.842-22.869,32.095-46.448,24.608"/>
					<path style="fill:none;stroke:#84EBFE;stroke-width:0.3;stroke-miterlimit:10;" d="M360.364,462.685
						c-9.501,21.146-19.217,41.934-30.302,62.299c-4.756,8.738-10.489,21.09-18.75,27.475c-16.987,13.129-36.653,1.774-54.182-4.212
						"/>
					<path style="fill:none;stroke:#84EBFE;stroke-width:0.3;stroke-miterlimit:10;" d="M347.159,477.242
						c-10.131,20.509-25.606,67.607-54.213,69.856c-21.228,1.669-38.508-16.628-60.05-15.314"/>
				</g>
			</g>
			<g>
				<g>
					<g>
						
							<line style="fill:none;stroke:#FFFFFF;stroke-width:3.5498;stroke-linecap:round;stroke-linejoin:round;" x1="109.15" y1="291.419" x2="109.15" y2="291.419"/>
						
							<line style="fill:none;stroke:#FFFFFF;stroke-width:3.5498;stroke-linecap:round;stroke-linejoin:round;stroke-dasharray:0,15.5386;" x1="124.688" y1="291.419" x2="194.612" y2="291.419"/>
						
							<line style="fill:none;stroke:#FFFFFF;stroke-width:3.5498;stroke-linecap:round;stroke-linejoin:round;" x1="202.381" y1="291.419" x2="202.381" y2="291.419"/>
					</g>
				</g>
				<g>
					<g>
						
							<line style="fill:none;stroke:#FFFFFF;stroke-width:3.5498;stroke-linecap:round;stroke-linejoin:round;" x1="109.15" y1="314.919" x2="109.15" y2="314.919"/>
						
							<line style="fill:none;stroke:#FFFFFF;stroke-width:3.5498;stroke-linecap:round;stroke-linejoin:round;stroke-dasharray:0,15.5386;" x1="124.688" y1="314.919" x2="194.612" y2="314.919"/>
						
							<line style="fill:none;stroke:#FFFFFF;stroke-width:3.5498;stroke-linecap:round;stroke-linejoin:round;" x1="202.381" y1="314.919" x2="202.381" y2="314.919"/>
					</g>
				</g>
				<g>
					<g>
						
							<line style="fill:none;stroke:#FFFFFF;stroke-width:3.5498;stroke-linecap:round;stroke-linejoin:round;" x1="109.15" y1="338.42" x2="109.15" y2="338.42"/>
						
							<line style="fill:none;stroke:#FFFFFF;stroke-width:3.5498;stroke-linecap:round;stroke-linejoin:round;stroke-dasharray:0,15.5386;" x1="124.688" y1="338.42" x2="194.612" y2="338.42"/>
						
							<line style="fill:none;stroke:#FFFFFF;stroke-width:3.5498;stroke-linecap:round;stroke-linejoin:round;" x1="202.381" y1="338.42" x2="202.381" y2="338.42"/>
					</g>
				</g>
				<g>
					<g>
						
							<line style="fill:none;stroke:#FFFFFF;stroke-width:3.5498;stroke-linecap:round;stroke-linejoin:round;" x1="109.15" y1="361.92" x2="109.15" y2="361.92"/>
						
							<line style="fill:none;stroke:#FFFFFF;stroke-width:3.5498;stroke-linecap:round;stroke-linejoin:round;stroke-dasharray:0,15.5386;" x1="124.688" y1="361.92" x2="194.612" y2="361.92"/>
						
							<line style="fill:none;stroke:#FFFFFF;stroke-width:3.5498;stroke-linecap:round;stroke-linejoin:round;" x1="202.381" y1="361.92" x2="202.381" y2="361.92"/>
					</g>
				</g>
				<g>
					<g>
						
							<line style="fill:none;stroke:#FFFFFF;stroke-width:3.5498;stroke-linecap:round;stroke-linejoin:round;" x1="109.15" y1="385.421" x2="109.15" y2="385.421"/>
						
							<line style="fill:none;stroke:#FFFFFF;stroke-width:3.5498;stroke-linecap:round;stroke-linejoin:round;stroke-dasharray:0,15.5386;" x1="124.688" y1="385.421" x2="194.612" y2="385.421"/>
						
							<line style="fill:none;stroke:#FFFFFF;stroke-width:3.5498;stroke-linecap:round;stroke-linejoin:round;" x1="202.381" y1="385.421" x2="202.381" y2="385.421"/>
					</g>
				</g>
			</g>
			<g>
				<g>
					<g>
						
							<line style="fill:none;stroke:#FFFFFF;stroke-width:3.5498;stroke-linecap:round;stroke-linejoin:round;" x1="531.511" y1="295.552" x2="531.511" y2="295.552"/>
						
							<line style="fill:none;stroke:#FFFFFF;stroke-width:3.5498;stroke-linecap:round;stroke-linejoin:round;stroke-dasharray:0,16.306;" x1="547.817" y1="295.552" x2="555.97" y2="295.552"/>
						
							<line style="fill:none;stroke:#FFFFFF;stroke-width:3.5498;stroke-linecap:round;stroke-linejoin:round;" x1="564.123" y1="295.552" x2="564.123" y2="295.552"/>
					</g>
				</g>
				<g>
					<g>
						
							<line style="fill:none;stroke:#FFFFFF;stroke-width:3.5498;stroke-linecap:round;stroke-linejoin:round;" x1="531.511" y1="306.396" x2="531.511" y2="306.396"/>
						
							<line style="fill:none;stroke:#FFFFFF;stroke-width:3.5498;stroke-linecap:round;stroke-linejoin:round;stroke-dasharray:0,16.306;" x1="547.817" y1="306.396" x2="555.97" y2="306.396"/>
						
							<line style="fill:none;stroke:#FFFFFF;stroke-width:3.5498;stroke-linecap:round;stroke-linejoin:round;" x1="564.123" y1="306.396" x2="564.123" y2="306.396"/>
					</g>
				</g>
				<g>
					<g>
						
							<line style="fill:none;stroke:#FFFFFF;stroke-width:3.5498;stroke-linecap:round;stroke-linejoin:round;" x1="531.511" y1="317.24" x2="531.511" y2="317.24"/>
						
							<line style="fill:none;stroke:#FFFFFF;stroke-width:3.5498;stroke-linecap:round;stroke-linejoin:round;stroke-dasharray:0,16.306;" x1="547.817" y1="317.24" x2="555.97" y2="317.24"/>
						
							<line style="fill:none;stroke:#FFFFFF;stroke-width:3.5498;stroke-linecap:round;stroke-linejoin:round;" x1="564.123" y1="317.24" x2="564.123" y2="317.24"/>
					</g>
				</g>
				<g>
					<g>
						
							<line style="fill:none;stroke:#FFFFFF;stroke-width:3.5498;stroke-linecap:round;stroke-linejoin:round;" x1="531.511" y1="328.083" x2="531.511" y2="328.083"/>
						
							<line style="fill:none;stroke:#FFFFFF;stroke-width:3.5498;stroke-linecap:round;stroke-linejoin:round;stroke-dasharray:0,16.306;" x1="547.817" y1="328.083" x2="555.97" y2="328.083"/>
						
							<line style="fill:none;stroke:#FFFFFF;stroke-width:3.5498;stroke-linecap:round;stroke-linejoin:round;" x1="564.123" y1="328.083" x2="564.123" y2="328.083"/>
					</g>
				</g>
			</g>
			<g>
				<g>
					<g>
						
							<line style="fill:none;stroke:#FFFFFF;stroke-width:3.5498;stroke-linecap:round;stroke-linejoin:round;" x1="94.92" y1="181.768" x2="94.92" y2="181.768"/>
						
							<line style="fill:none;stroke:#FFFFFF;stroke-width:3.5498;stroke-linecap:round;stroke-linejoin:round;stroke-dasharray:0,16.306;" x1="111.226" y1="181.768" x2="119.379" y2="181.768"/>
						
							<line style="fill:none;stroke:#FFFFFF;stroke-width:3.5498;stroke-linecap:round;stroke-linejoin:round;" x1="127.532" y1="181.768" x2="127.532" y2="181.768"/>
					</g>
				</g>
				<g>
					<g>
						
							<line style="fill:none;stroke:#FFFFFF;stroke-width:3.5498;stroke-linecap:round;stroke-linejoin:round;" x1="94.92" y1="192.611" x2="94.92" y2="192.611"/>
						
							<line style="fill:none;stroke:#FFFFFF;stroke-width:3.5498;stroke-linecap:round;stroke-linejoin:round;stroke-dasharray:0,16.306;" x1="111.226" y1="192.611" x2="119.379" y2="192.611"/>
						
							<line style="fill:none;stroke:#FFFFFF;stroke-width:3.5498;stroke-linecap:round;stroke-linejoin:round;" x1="127.532" y1="192.611" x2="127.532" y2="192.611"/>
					</g>
				</g>
				<g>
					<g>
						
							<line style="fill:none;stroke:#FFFFFF;stroke-width:3.5498;stroke-linecap:round;stroke-linejoin:round;" x1="94.92" y1="203.455" x2="94.92" y2="203.455"/>
						
							<line style="fill:none;stroke:#FFFFFF;stroke-width:3.5498;stroke-linecap:round;stroke-linejoin:round;stroke-dasharray:0,16.306;" x1="111.226" y1="203.455" x2="119.379" y2="203.455"/>
						
							<line style="fill:none;stroke:#FFFFFF;stroke-width:3.5498;stroke-linecap:round;stroke-linejoin:round;" x1="127.532" y1="203.455" x2="127.532" y2="203.455"/>
					</g>
				</g>
				<g>
					<g>
						
							<line style="fill:none;stroke:#FFFFFF;stroke-width:3.5498;stroke-linecap:round;stroke-linejoin:round;" x1="94.92" y1="214.299" x2="94.92" y2="214.299"/>
						
							<line style="fill:none;stroke:#FFFFFF;stroke-width:3.5498;stroke-linecap:round;stroke-linejoin:round;stroke-dasharray:0,16.306;" x1="111.226" y1="214.299" x2="119.379" y2="214.299"/>
						
							<line style="fill:none;stroke:#FFFFFF;stroke-width:3.5498;stroke-linecap:round;stroke-linejoin:round;" x1="127.532" y1="214.299" x2="127.532" y2="214.299"/>
					</g>
				</g>
			</g>
			<g>
				<g>
					<g>
						
							<line style="fill:none;stroke:#FFFFFF;stroke-width:3.5498;stroke-linecap:round;stroke-linejoin:round;" x1="584.088" y1="102.471" x2="584.088" y2="102.471"/>
						
							<line style="fill:none;stroke:#FFFFFF;stroke-width:3.5498;stroke-linecap:round;stroke-linejoin:round;stroke-dasharray:0,15.5386;" x1="599.627" y1="102.471" x2="669.55" y2="102.471"/>
						
							<line style="fill:none;stroke:#FFFFFF;stroke-width:3.5498;stroke-linecap:round;stroke-linejoin:round;" x1="677.32" y1="102.471" x2="677.32" y2="102.471"/>
					</g>
				</g>
				<g>
					<g>
						
							<line style="fill:none;stroke:#FFFFFF;stroke-width:3.5498;stroke-linecap:round;stroke-linejoin:round;" x1="584.088" y1="125.971" x2="584.088" y2="125.971"/>
						
							<line style="fill:none;stroke:#FFFFFF;stroke-width:3.5498;stroke-linecap:round;stroke-linejoin:round;stroke-dasharray:0,15.5386;" x1="599.627" y1="125.971" x2="669.55" y2="125.971"/>
						
							<line style="fill:none;stroke:#FFFFFF;stroke-width:3.5498;stroke-linecap:round;stroke-linejoin:round;" x1="677.32" y1="125.971" x2="677.32" y2="125.971"/>
					</g>
				</g>
				<g>
					<g>
						
							<line style="fill:none;stroke:#FFFFFF;stroke-width:3.5498;stroke-linecap:round;stroke-linejoin:round;" x1="584.088" y1="149.472" x2="584.088" y2="149.472"/>
						
							<line style="fill:none;stroke:#FFFFFF;stroke-width:3.5498;stroke-linecap:round;stroke-linejoin:round;stroke-dasharray:0,15.5386;" x1="599.627" y1="149.472" x2="669.55" y2="149.472"/>
						
							<line style="fill:none;stroke:#FFFFFF;stroke-width:3.5498;stroke-linecap:round;stroke-linejoin:round;" x1="677.32" y1="149.472" x2="677.32" y2="149.472"/>
					</g>
				</g>
				<g>
					<g>
						
							<line style="fill:none;stroke:#FFFFFF;stroke-width:3.5498;stroke-linecap:round;stroke-linejoin:round;" x1="584.088" y1="172.972" x2="584.088" y2="172.972"/>
						
							<line style="fill:none;stroke:#FFFFFF;stroke-width:3.5498;stroke-linecap:round;stroke-linejoin:round;stroke-dasharray:0,15.5386;" x1="599.627" y1="172.972" x2="669.55" y2="172.972"/>
						
							<line style="fill:none;stroke:#FFFFFF;stroke-width:3.5498;stroke-linecap:round;stroke-linejoin:round;" x1="677.32" y1="172.972" x2="677.32" y2="172.972"/>
					</g>
				</g>
				<g>
					<g>
						
							<line style="fill:none;stroke:#FFFFFF;stroke-width:3.5498;stroke-linecap:round;stroke-linejoin:round;" x1="584.088" y1="196.473" x2="584.088" y2="196.473"/>
						
							<line style="fill:none;stroke:#FFFFFF;stroke-width:3.5498;stroke-linecap:round;stroke-linejoin:round;stroke-dasharray:0,15.5386;" x1="599.627" y1="196.473" x2="669.55" y2="196.473"/>
						
							<line style="fill:none;stroke:#FFFFFF;stroke-width:3.5498;stroke-linecap:round;stroke-linejoin:round;" x1="677.32" y1="196.473" x2="677.32" y2="196.473"/>
					</g>
				</g>
			</g>
			
				<ellipse transform="matrix(0.229 -0.9734 0.9734 0.229 -166.2553 550.5677)" style="fill:none;stroke:#84EBFE;stroke-width:2;stroke-linecap:round;stroke-linejoin:round;stroke-miterlimit:10;" cx="264.432" cy="380.237" rx="7.675" ry="7.675"/>
			
				<ellipse transform="matrix(0.1598 -0.9871 0.9871 0.1598 434.1499 601.6533)" style="fill:none;stroke:#84EBFE;stroke-width:2;stroke-linecap:round;stroke-linejoin:round;stroke-miterlimit:10;" cx="570.516" cy="45.786" rx="7.675" ry="7.675"/>
			
				<ellipse transform="matrix(0.229 -0.9734 0.9734 0.229 56.8012 822.8064)" style="fill:none;stroke:#84EBFE;stroke-width:2;stroke-linecap:round;stroke-linejoin:round;stroke-miterlimit:10;" cx="547.817" cy="375.546" rx="7.675" ry="7.675"/>
			
				<ellipse transform="matrix(0.7071 -0.7071 0.7071 0.7071 -231.4382 356.6425)" style="fill:none;stroke:#84EBFE;stroke-width:2;stroke-linecap:round;stroke-linejoin:round;stroke-miterlimit:10;" cx="314.786" cy="457.692" rx="7.675" ry="7.675"/>
			
				<circle style="fill:none;stroke:#84EBFE;stroke-width:2;stroke-linecap:round;stroke-linejoin:round;stroke-miterlimit:10;" cx="224.076" cy="122.749" r="7.675"/>
			<circle style="fill:#FFA700;" cx="375" cy="250" r="131.273"/>
			
				<ellipse transform="matrix(0.2757 -0.9612 0.9612 0.2757 -431.0583 479.1993)" style="fill:#FFA700;" cx="102.446" cy="525.63" rx="54.256" ry="54.256"/>
			
				<ellipse transform="matrix(0.7071 -0.7071 0.7071 0.7071 -14.7522 -9.5763)" style="fill:#FFFFFF;" cx="-18.936" cy="13.019" rx="54.256" ry="54.256"/>
			<circle style="fill:#FFFFFF;" cx="772.758" cy="108.967" r="54.256"/>
			
				<ellipse transform="matrix(0.224 -0.9746 0.9746 0.224 399.0961 475.9411)" style="fill:#FFA700;" cx="498.41" cy="-12.638" rx="54.256" ry="54.256"/>
			<g>
				<path style="fill:none;stroke:#84EBFE;stroke-width:0.3;stroke-miterlimit:10;" d="M-59.987,395.948
					c0,0,76.74-121.119,272.163-186.086c143.598-47.738,93.408-127.459,259.94-98.651S785.274,60.454,796.67-56.922"/>
				<path style="fill:none;stroke:#84EBFE;stroke-width:0.3;stroke-miterlimit:10;" d="M-57.444,401.448
					c0,0,74.001-124.047,266.595-190.345c142.442-49.625,95.226-127.956,261.758-99.148
					c166.532,28.808,313.307-54.837,324.704-172.212"/>
				<path style="fill:none;stroke:#84EBFE;stroke-width:0.3;stroke-miterlimit:10;" d="M-54.902,406.949
					c0,0,71.508-126.287,261.028-194.605c141.473-50.998,97.043-128.453,263.576-99.645S783.16,53.784,794.556-63.592"/>
				<path style="fill:none;stroke:#84EBFE;stroke-width:0.3;stroke-miterlimit:10;" d="M-52.359,412.449
					c0,0,68.892-128.908,255.461-198.864c140.414-52.65,98.861-128.95,265.394-100.142S782.103,50.449,793.5-66.927"/>
				<path style="fill:none;stroke:#84EBFE;stroke-width:0.3;stroke-miterlimit:10;" d="M-49.817,417.949
					c0,0,66.274-131.554,249.894-203.123c139.357-54.317,100.679-129.447,267.211-100.639
					c166.532,28.808,313.759-67.074,325.155-184.449"/>
				<path style="fill:none;stroke:#84EBFE;stroke-width:0.3;stroke-miterlimit:10;" d="M-47.274,423.45
					c0,0,63.655-134.225,244.326-207.383c138.3-56,102.497-129.944,269.029-101.135S779.99,43.779,791.386-73.597"/>
				<path style="fill:none;stroke:#84EBFE;stroke-width:0.3;stroke-miterlimit:10;" d="M-44.732,428.95
					c0,0,61.034-136.923,238.759-211.642c137.243-57.7,104.314-130.441,270.847-101.633S778.933,40.444,790.329-76.932"/>
				<path style="fill:none;stroke:#84EBFE;stroke-width:0.3;stroke-miterlimit:10;" d="M-42.189,434.45
					c0,0,58.409-139.646,233.192-215.901c136.186-59.416,106.132-130.938,272.664-102.13
					c166.532,28.808,314.209-79.311,325.606-196.687"/>
				<path style="fill:none;stroke:#84EBFE;stroke-width:0.3;stroke-miterlimit:10;" d="M-39.647,439.951
					c0,0,55.779-142.395,227.625-220.161c135.127-61.15,107.95-131.435,274.482-102.626s314.36-83.39,325.756-200.766"/>
				<path style="fill:none;stroke:#84EBFE;stroke-width:0.3;stroke-miterlimit:10;" d="M-37.105,445.451
					c0,0,53.144-145.17,222.058-224.42c134.066-62.9,109.767-131.932,276.3-103.123c166.532,28.808,314.51-87.469,325.906-204.845"
					/>
				<path style="fill:none;stroke:#84EBFE;stroke-width:0.3;stroke-miterlimit:10;" d="M-34.562,450.951
					c0,0,50.503-147.97,216.49-228.679c133.001-64.669,111.585-132.428,278.117-103.62
					c166.532,28.808,314.66-91.548,326.057-208.924"/>
				<path style="fill:none;stroke:#84EBFE;stroke-width:0.3;stroke-miterlimit:10;" d="M-32.02,456.452
					c0,0,47.854-150.797,210.923-232.938c131.931-66.457,113.403-132.926,279.935-104.117S773.649,23.769,785.046-93.607"/>
				<path style="fill:none;stroke:#84EBFE;stroke-width:0.3;stroke-miterlimit:10;" d="M-29.477,461.952
					c0,0,45.197-153.649,205.356-237.198C306.735,156.491,291.099,91.332,457.632,120.14
					c166.532,28.808,314.961-99.706,326.357-217.082"/>
				<path style="fill:none;stroke:#84EBFE;stroke-width:0.3;stroke-miterlimit:10;" d="M-26.935,467.452
					c0,0,42.531-156.526,199.789-241.457c129.775-70.088,117.038-133.919,283.571-105.111S771.536,17.099,782.932-100.277"/>
				<path style="fill:none;stroke:#84EBFE;stroke-width:0.3;stroke-miterlimit:10;" d="M-24.392,472.953
					c0,0,39.854-159.429,194.221-245.716C298.515,155.304,288.685,92.82,455.218,121.628s315.262-107.864,326.658-225.24"/>
				<path style="fill:none;stroke:#84EBFE;stroke-width:0.3;stroke-miterlimit:10;" d="M-21.85,478.453
					c0,0,37.166-162.355,188.654-249.976C294.392,154.681,287.478,93.564,454.01,122.372
					C620.543,151.18,769.422,10.429,780.819-106.947"/>
				<path style="fill:none;stroke:#84EBFE;stroke-width:0.3;stroke-miterlimit:10;" d="M-19.307,483.953
					c0,0,34.466-165.307,183.087-254.235c126.48-75.68,122.491-135.41,289.024-106.602S768.366,7.094,779.762-110.282"/>
				<path style="fill:none;stroke:#84EBFE;stroke-width:0.3;stroke-miterlimit:10;" d="M-16.765,489.453
					c0,0,31.752-168.281,177.52-258.494c125.36-77.583,124.309-135.907,290.841-107.099S767.309,3.759,778.705-113.617"/>
				<path style="fill:none;stroke:#84EBFE;stroke-width:0.3;stroke-miterlimit:10;" d="M-14.222,494.954
					c0,0,29.023-171.279,171.953-262.754c124.228-79.506,126.127-136.404,292.659-107.596
					c166.532,28.808,315.863-124.18,327.259-241.556"/>
				<path style="fill:none;stroke:#84EBFE;stroke-width:0.3;stroke-miterlimit:10;" d="M-11.68,500.454
					c0,0,26.279-174.299,166.385-267.013C277.788,151.992,282.65,96.54,449.182,125.348S765.195-2.911,776.592-120.287"/>
				<path style="fill:none;stroke:#84EBFE;stroke-width:0.3;stroke-miterlimit:10;" d="M-9.137,505.954
					c0,0,23.519-177.34,160.818-271.272c121.922-83.412,129.762-137.398,296.294-108.59S764.139-6.246,775.535-123.622"/>
				<path style="fill:none;stroke:#84EBFE;stroke-width:0.3;stroke-miterlimit:10;" d="M-6.595,511.455
					c0,0,20.741-180.402,155.251-275.531C269.4,150.529,280.236,98.028,446.768,126.837
					c166.532,28.808,316.314-136.417,327.71-253.793"/>
				<path style="fill:none;stroke:#84EBFE;stroke-width:0.3;stroke-miterlimit:10;" d="M-4.052,516.955
					c0,0,17.945-183.483,149.684-279.791c119.549-87.396,133.397-138.392,299.93-109.584s316.464-140.496,327.86-257.872"/>
				<path style="fill:none;stroke:#84EBFE;stroke-width:0.3;stroke-miterlimit:10;" d="M-1.51,522.455
					c0,0,15.129-186.583,144.117-284.05c118.335-89.417,135.215-138.889,301.747-110.08S760.969-16.251,772.365-133.627"/>
				<path style="fill:none;stroke:#84EBFE;stroke-width:0.3;stroke-miterlimit:10;" d="M1.032,527.956
					c0,0,12.293-189.7,138.549-288.309c117.1-91.458,137.033-139.386,303.565-110.577
					c166.532,28.808,316.765-148.654,328.161-266.03"/>
				<path style="fill:none;stroke:#84EBFE;stroke-width:0.3;stroke-miterlimit:10;" d="M3.575,533.456
					c0,0,9.435-192.834,132.982-292.569c115.843-93.517,138.85-139.883,305.383-111.074S758.855-22.921,770.251-140.297"/>
				<path style="fill:none;stroke:#84EBFE;stroke-width:0.3;stroke-miterlimit:10;" d="M6.117,538.956
					c0,0,6.556-195.982,127.415-296.828c114.564-95.593,140.668-140.38,307.201-111.571
					c166.532,28.808,317.065-156.813,328.462-274.189"/>
				<path style="fill:none;stroke:#84EBFE;stroke-width:0.3;stroke-miterlimit:10;" d="M8.66,544.456
					c0,0,3.654-199.144,121.848-301.087c113.26-97.688,142.486-140.876,309.018-112.068
					c166.532,28.808,317.216-160.892,328.612-278.268"/>
				<path style="fill:none;stroke:#84EBFE;stroke-width:0.3;stroke-miterlimit:10;" d="M11.202,549.957
					c0,0,0.728-202.318,116.281-305.347c111.93-99.799,144.304-141.374,310.836-112.565S755.685-32.926,767.081-150.302"/>
				<path style="fill:none;stroke:#84EBFE;stroke-width:0.3;stroke-miterlimit:10;" d="M13.745,555.457
					c0,0-2.222-205.503,110.713-309.606c110.573-101.926,146.121-141.87,312.654-113.062
					c166.532,28.808,317.516-169.05,328.913-286.426"/>
				<path style="fill:none;stroke:#84EBFE;stroke-width:0.3;stroke-miterlimit:10;" d="M16.287,560.957
					c0,0-5.196-208.697,105.146-313.865c109.189-104.068,147.939-142.367,314.471-113.559S753.571-39.596,764.967-156.972"/>
				<path style="fill:none;stroke:#84EBFE;stroke-width:0.3;stroke-miterlimit:10;" d="M18.83,566.458
					c0,0-8.197-211.9,99.579-318.125s149.757-142.864,316.289-114.056S752.514-42.931,763.911-160.307"/>
			</g>
			<g>
				<g>
					<polygon style="fill-rule:evenodd;clip-rule:evenodd;fill:#FECB47;" points="708.211,181.71 722.405,167.516 703.015,162.32 
											"/>
					<polygon style="fill-rule:evenodd;clip-rule:evenodd;fill:none;stroke:#FECB47;stroke-width:2;stroke-miterlimit:10;" points="
						699.844,181.71 714.038,167.516 694.648,162.32 					"/>
				</g>
				<g>
					<polygon style="fill-rule:evenodd;clip-rule:evenodd;fill:#FECB47;" points="50.017,247.75 67.686,257.276 67.101,237.211 
											"/>
					<polygon style="fill-rule:evenodd;clip-rule:evenodd;fill:none;stroke:#FECB47;stroke-width:2;stroke-miterlimit:10;" points="
						47.617,239.735 65.286,249.261 64.701,229.196 					"/>
				</g>
				<g>
					<polygon style="fill-rule:evenodd;clip-rule:evenodd;fill:#FECB47;" points="396.372,64.329 410.566,50.135 391.177,44.94 
											"/>
					<polygon style="fill-rule:evenodd;clip-rule:evenodd;fill:none;stroke:#FECB47;stroke-width:2;stroke-miterlimit:10;" points="
						388.005,64.329 402.199,50.135 382.81,44.94 					"/>
				</g>
				<g>
					<polygon style="fill-rule:evenodd;clip-rule:evenodd;fill:#FECB47;" points="475.011,391.084 494.071,397.379 489.993,377.725 
											"/>
					<polygon style="fill-rule:evenodd;clip-rule:evenodd;fill:none;stroke:#FECB47;stroke-width:2;stroke-miterlimit:10;" points="
						471.249,383.611 490.309,389.906 486.231,370.251 					"/>
				</g>
				<g>
					<polygon style="fill-rule:evenodd;clip-rule:evenodd;fill:#FECB47;" points="155.772,449.772 174.832,456.067 170.754,436.412 
											"/>
					<polygon style="fill-rule:evenodd;clip-rule:evenodd;fill:none;stroke:#FECB47;stroke-width:2;stroke-miterlimit:10;" points="
						152.009,442.298 171.07,448.594 166.992,428.939 					"/>
				</g>
			</g>
			
				<ellipse transform="matrix(0.7071 -0.7071 0.7071 0.7071 -10.5443 515.1089)" style="fill:#84EBFE;" cx="616.519" cy="270.283" rx="9.829" ry="9.829"/>
			<circle style="fill:#84EBFE;" cx="75.158" cy="419.931" r="7.434"/>
			
				<ellipse transform="matrix(0.6891 -0.7247 0.7247 0.6891 28.8899 233.8329)" style="fill:#84EBFE;" cx="286.957" cy="83.248" rx="7.434" ry="7.434"/>
			
				<ellipse transform="matrix(0.7071 -0.7071 0.7071 0.7071 -250.0612 288.6895)" style="fill:#84EBFE;" cx="223.448" cy="446.195" rx="7.434" ry="7.434"/>
			<circle style="fill:#84EBFE;" cx="64.715" cy="38.11" r="7.434"/>
			<g>
				<path style="fill:#84EBFE;" d="M78.459,102.011c0.454,1.823-0.655,3.67-2.479,4.124c-1.823,0.454-3.67-0.655-4.124-2.479
					c-0.454-1.823,0.655-3.67,2.479-4.124C76.158,99.078,78.005,100.188,78.459,102.011z"/>
				<path style="fill:#84EBFE;" d="M173.963,130.34c0.454,1.823-0.655,3.67-2.479,4.124c-1.823,0.454-3.67-0.655-4.124-2.479
					c-0.454-1.823,0.655-3.67,2.478-4.124C171.662,127.407,173.508,128.517,173.963,130.34z"/>
				<path style="fill:#84EBFE;" d="M128.149,55.711c0.454,1.823-0.655,3.67-2.478,4.124c-1.823,0.454-3.67-0.655-4.124-2.479
					c-0.454-1.823,0.655-3.67,2.479-4.124C125.848,52.778,127.695,53.888,128.149,55.711z"/>
				<path style="fill:#84EBFE;" d="M230.781,46.943c0.454,1.823-0.655,3.67-2.479,4.124c-1.823,0.454-3.67-0.655-4.124-2.479
					c-0.454-1.823,0.655-3.67,2.478-4.124C228.48,44.01,230.326,45.119,230.781,46.943z"/>
				<path style="fill:#84EBFE;" d="M322.701-6.021c0.454,1.823-0.655,3.67-2.478,4.124c-1.823,0.454-3.67-0.655-4.124-2.478
					c-0.454-1.823,0.655-3.67,2.479-4.124C320.4-8.954,322.247-7.844,322.701-6.021z"/>
				<path style="fill:#84EBFE;" d="M45.35,129.574c0.306,1.229-0.442,2.473-1.67,2.779c-1.229,0.306-2.473-0.441-2.779-1.67
					c-0.306-1.229,0.442-2.473,1.67-2.779C43.8,127.597,45.044,128.345,45.35,129.574z"/>
				<path style="fill:#84EBFE;" d="M-16.711,163.452c0.306,1.229-0.442,2.473-1.67,2.779c-1.229,0.306-2.473-0.441-2.779-1.67
					c-0.306-1.229,0.442-2.473,1.67-2.779C-18.261,161.476-17.017,162.224-16.711,163.452z"/>
				<path style="fill:#84EBFE;" d="M-24.226,231.117c0.306,1.229-0.441,2.473-1.67,2.779c-1.229,0.306-2.473-0.442-2.779-1.67
					c-0.306-1.229,0.442-2.473,1.67-2.779C-25.777,229.14-24.533,229.888-24.226,231.117z"/>
				<path style="fill:#84EBFE;" d="M34.667,214.076c0.306,1.229-0.442,2.473-1.67,2.779c-1.229,0.306-2.473-0.442-2.779-1.67
					c-0.306-1.229,0.442-2.473,1.67-2.779C33.116,212.099,34.361,212.847,34.667,214.076z"/>
				<path style="fill:#84EBFE;" d="M3.949,158.303c0.306,1.229-0.442,2.473-1.67,2.779c-1.229,0.306-2.473-0.442-2.779-1.67
					c-0.306-1.229,0.441-2.473,1.67-2.779C2.399,156.327,3.643,157.075,3.949,158.303z"/>
				<path style="fill:#84EBFE;" d="M0.636,195.185c0.306,1.229-0.442,2.473-1.67,2.779c-1.229,0.306-2.473-0.442-2.779-1.67
					c-0.306-1.229,0.442-2.473,1.67-2.779C-0.915,193.209,0.329,193.956,0.636,195.185z"/>
				<path style="fill:#84EBFE;" d="M167.939,87.209c0.306,1.229-0.442,2.473-1.67,2.779c-1.229,0.306-2.473-0.442-2.779-1.67
					c-0.306-1.229,0.441-2.473,1.67-2.779C166.389,85.233,167.633,85.98,167.939,87.209z"/>
				<path style="fill:#84EBFE;" d="M209.763,94.233c0.306,1.229-0.442,2.473-1.67,2.779c-1.229,0.306-2.473-0.442-2.779-1.67
					c-0.306-1.229,0.442-2.473,1.67-2.779C208.212,92.257,209.456,93.005,209.763,94.233z"/>
				<path style="fill:#84EBFE;" d="M295.328-39.498c0.306,1.229-0.442,2.473-1.67,2.779c-1.229,0.306-2.473-0.442-2.779-1.67
					c-0.306-1.229,0.442-2.473,1.67-2.779C293.777-41.474,295.022-40.726,295.328-39.498z"/>
				<path style="fill:#84EBFE;" d="M323.195-65.222c0.306,1.229-0.442,2.473-1.67,2.779c-1.229,0.306-2.473-0.442-2.779-1.67
					c-0.306-1.229,0.441-2.473,1.67-2.779C321.644-67.198,322.888-66.45,323.195-65.222z"/>
				<path style="fill:#84EBFE;" d="M269.974,42.282c0.306,1.229-0.442,2.473-1.67,2.779c-1.229,0.306-2.473-0.442-2.779-1.67
					c-0.306-1.229,0.442-2.473,1.67-2.779C268.423,40.305,269.667,41.053,269.974,42.282z"/>
				<path style="fill:#84EBFE;" d="M108.334,96.583c0.306,1.229-0.442,2.473-1.67,2.779c-1.229,0.306-2.473-0.442-2.779-1.67
					c-0.306-1.229,0.442-2.473,1.67-2.779C106.783,94.606,108.027,95.354,108.334,96.583z"/>
				<path style="fill:#84EBFE;" d="M170.766,24.258c0.306,1.229-0.442,2.473-1.67,2.779c-1.229,0.306-2.473-0.442-2.779-1.67
					c-0.306-1.229,0.442-2.473,1.67-2.779C169.215,22.281,170.459,23.029,170.766,24.258z"/>
				<path style="fill:#84EBFE;" d="M215.193-1.529c0.306,1.229-0.442,2.473-1.67,2.779c-1.229,0.306-2.473-0.442-2.779-1.67
					c-0.306-1.229,0.442-2.473,1.67-2.779C213.643-3.506,214.887-2.758,215.193-1.529z"/>
				<path style="fill:#84EBFE;" d="M248.581-34.071c0.306,1.229-0.442,2.473-1.67,2.779s-2.473-0.442-2.779-1.67
					c-0.306-1.229,0.442-2.473,1.67-2.779C247.03-36.048,248.275-35.3,248.581-34.071z"/>
				<path style="fill:#84EBFE;" d="M102.344,163.967c0.454,1.823-0.655,3.67-2.479,4.124c-1.823,0.454-3.67-0.655-4.124-2.479
					c-0.454-1.823,0.655-3.67,2.478-4.124C100.043,161.034,101.89,162.143,102.344,163.967z"/>
				<path style="fill:#84EBFE;" d="M18.151,177.386c0.454,1.823-0.655,3.67-2.479,4.124c-1.823,0.454-3.67-0.655-4.124-2.479
					c-0.454-1.823,0.655-3.67,2.479-4.124C15.85,174.453,17.696,175.563,18.151,177.386z"/>
				<path style="fill:#84EBFE;" d="M1.712,236.545c0.454,1.823-0.655,3.67-2.479,4.124c-1.823,0.454-3.67-0.655-4.124-2.478
					c-0.454-1.823,0.655-3.67,2.478-4.124C-0.589,233.612,1.258,234.722,1.712,236.545z"/>
				<path style="fill:#84EBFE;" d="M-55.107,178.891c0.454,1.823-0.655,3.67-2.479,4.124c-1.823,0.454-3.67-0.655-4.124-2.479
					c-0.454-1.823,0.655-3.67,2.479-4.124C-57.408,175.959-55.562,177.068-55.107,178.891z"/>
				<polyline style="fill:none;stroke:#84EBFE;stroke-width:0.25;stroke-miterlimit:10;" points="165.714,87.764 168.337,24.863 
					227.46,47.689 170.661,131.163 106.109,97.137 124.868,56.529 165.714,87.764 170.661,131.163 135.861,147.503 99.043,164.79 
					42.702,130.035 75.158,102.834 99.043,164.79 				"/>
				<polyline style="fill:none;stroke:#84EBFE;stroke-width:0.25;stroke-miterlimit:10;" points="2.297,158.715 14.978,178.231 
					99.043,164.79 2.297,158.715 -73.412,170.371 -1.462,195.708 14.978,178.231 43.028,129.738 32.348,214.653 75.158,102.834 				
					"/>
				<polygon style="fill:none;stroke:#84EBFE;stroke-width:0.25;stroke-miterlimit:10;" points="32.348,214.653 -1.589,237.368 
					-18.936,164.007 -26.451,231.671 -73.412,170.371 -26.451,231.671 -58.408,179.714 14.978,178.231 				"/>
				<polyline style="fill:none;stroke:#84EBFE;stroke-width:0.25;stroke-miterlimit:10;" points="1.781,159.084 -18.936,164.007 
					-58.408,179.714 				"/>
				<polyline style="fill:none;stroke:#84EBFE;stroke-width:0.25;stroke-miterlimit:10;" points="-18.936,164.007 -1.589,237.368 
					-26.451,231.671 				"/>
				
					<line style="fill:none;stroke:#84EBFE;stroke-width:0.25;stroke-miterlimit:10;" x1="-1.589" y1="237.368" x2="14.978" y2="178.231"/>
				<polyline style="fill:none;stroke:#84EBFE;stroke-width:0.25;stroke-miterlimit:10;" points="293.103,-38.943 267.749,42.836 
					227.46,47.689 				"/>
				<polyline style="fill:none;stroke:#84EBFE;stroke-width:0.25;stroke-miterlimit:10;" points="212.969,-0.975 293.103,-38.943 
					227.46,47.689 212.969,-0.975 168.337,24.863 207.766,95.702 124.868,56.529 99.043,164.79 106.109,97.137 165.714,87.764 
					227.46,47.689 212.969,-0.975 267.749,42.836 246.46,-33.098 319.485,-4.857 320.97,-64.667 267.749,42.836 				"/>
				
					<line style="fill:none;stroke:#84EBFE;stroke-width:0.25;stroke-miterlimit:10;" x1="318.914" y1="-5.077" x2="267.749" y2="42.836"/>
			</g>
			<g>
				<path style="fill:#84EBFE;" d="M773.035,413.549c-0.806-1.697-0.085-3.727,1.613-4.533c1.697-0.807,3.727-0.085,4.533,1.613
					c0.807,1.697,0.084,3.727-1.613,4.533C775.871,415.969,773.842,415.246,773.035,413.549z"/>
				<path style="fill:#84EBFE;" d="M673.813,404.698c-0.807-1.697-0.085-3.727,1.613-4.533c1.697-0.807,3.727-0.085,4.533,1.613
					c0.807,1.697,0.085,3.727-1.612,4.533C676.649,407.117,674.619,406.395,673.813,404.698z"/>
				<path style="fill:#84EBFE;" d="M733.5,468.774c-0.807-1.697-0.085-3.727,1.612-4.533c1.697-0.807,3.727-0.085,4.533,1.612
					c0.806,1.697,0.085,3.727-1.613,4.533C736.336,471.193,734.307,470.471,733.5,468.774z"/>
				<path style="fill:#84EBFE;" d="M634.639,497.696c-0.807-1.697-0.085-3.727,1.613-4.533c1.697-0.806,3.727-0.085,4.533,1.612
					c0.807,1.697,0.085,3.727-1.613,4.533C637.475,500.115,635.445,499.393,634.639,497.696z"/>
				<path style="fill:#84EBFE;" d="M555.03,567.817c-0.807-1.697-0.085-3.727,1.613-4.533c1.697-0.806,3.727-0.084,4.533,1.613
					c0.807,1.697,0.085,3.727-1.613,4.533C557.866,570.236,555.836,569.514,555.03,567.817z"/>
				<path style="fill:#84EBFE;" d="M800.029,379.975c-0.544-1.144-0.057-2.512,1.087-3.055c1.144-0.543,2.512-0.057,3.055,1.087
					c0.544,1.144,0.057,2.511-1.087,3.055C801.94,381.605,800.573,381.119,800.029,379.975z"/>
				<path style="fill:#84EBFE;" d="M854.15,334.475c-0.544-1.144-0.057-2.512,1.087-3.055c1.144-0.544,2.512-0.057,3.055,1.087
					c0.544,1.144,0.057,2.512-1.087,3.055C856.062,336.105,854.694,335.619,854.15,334.475z"/>
				<path style="fill:#84EBFE;" d="M848.115,266.663c-0.544-1.144-0.057-2.512,1.087-3.055c1.144-0.544,2.512-0.057,3.055,1.087
					c0.543,1.144,0.057,2.512-1.087,3.055C850.026,268.293,848.659,267.806,848.115,266.663z"/>
				<path style="fill:#84EBFE;" d="M793.764,295.031c-0.544-1.144-0.057-2.512,1.087-3.055c1.144-0.544,2.512-0.057,3.055,1.087
					c0.544,1.144,0.057,2.512-1.087,3.055C795.675,296.661,794.308,296.175,793.764,295.031z"/>
				<path style="fill:#84EBFE;" d="M834.919,343.614c-0.544-1.144-0.057-2.512,1.087-3.055c1.144-0.544,2.512-0.057,3.055,1.087
					c0.544,1.144,0.057,2.512-1.087,3.055C836.831,345.245,835.463,344.758,834.919,343.614z"/>
				<path style="fill:#84EBFE;" d="M830.862,306.807c-0.544-1.144-0.057-2.512,1.087-3.055c1.144-0.544,2.512-0.057,3.055,1.087
					c0.544,1.144,0.057,2.512-1.087,3.055C832.774,308.437,831.406,307.95,830.862,306.807z"/>
				<path style="fill:#84EBFE;" d="M688.26,445.781c-0.544-1.144-0.057-2.512,1.087-3.055c1.144-0.543,2.512-0.057,3.055,1.087
					c0.544,1.144,0.057,2.512-1.087,3.055C690.171,447.411,688.803,446.924,688.26,445.781z"/>
				<path style="fill:#84EBFE;" d="M645.873,447.18c-0.543-1.144-0.057-2.512,1.087-3.055c1.144-0.543,2.512-0.057,3.055,1.087
					c0.544,1.144,0.057,2.511-1.087,3.055C647.785,448.81,646.417,448.323,645.873,447.18z"/>
				<path style="fill:#84EBFE;" d="M588.491,595.208c-0.544-1.144-0.057-2.512,1.087-3.055c1.144-0.543,2.512-0.057,3.055,1.087
					c0.544,1.144,0.057,2.512-1.087,3.055C590.402,596.839,589.035,596.352,588.491,595.208z"/>
				<path style="fill:#84EBFE;" d="M566.271,625.942c-0.544-1.144-0.057-2.511,1.087-3.055c1.144-0.544,2.512-0.057,3.055,1.087
					c0.544,1.144,0.057,2.511-1.087,3.055C568.183,627.573,566.815,627.086,566.271,625.942z"/>
				<path style="fill:#84EBFE;" d="M597.145,510.028c-0.544-1.144-0.057-2.511,1.087-3.055c1.144-0.544,2.512-0.057,3.055,1.087
					c0.544,1.144,0.057,2.512-1.087,3.055C599.057,511.658,597.689,511.171,597.145,510.028z"/>
				<path style="fill:#84EBFE;" d="M744.828,424.787c-0.543-1.144-0.057-2.512,1.087-3.055c1.144-0.543,2.511-0.057,3.055,1.087
					c0.544,1.144,0.057,2.512-1.087,3.055C746.739,426.417,745.371,425.931,744.828,424.787z"/>
				<path style="fill:#84EBFE;" d="M697.958,508.045c-0.544-1.144-0.057-2.512,1.087-3.055c1.144-0.543,2.512-0.057,3.055,1.087
					c0.544,1.144,0.057,2.512-1.087,3.055C699.869,509.675,698.501,509.189,697.958,508.045z"/>
				<path style="fill:#84EBFE;" d="M659.518,542.12c-0.544-1.144-0.057-2.511,1.087-3.055c1.144-0.544,2.512-0.057,3.055,1.087
					c0.544,1.144,0.057,2.512-1.087,3.055C661.429,543.751,660.061,543.264,659.518,542.12z"/>
				<path style="fill:#84EBFE;" d="M633.237,580.63c-0.543-1.144-0.057-2.511,1.087-3.055c1.144-0.543,2.511-0.057,3.055,1.087
					c0.544,1.144,0.057,2.512-1.087,3.055C635.148,582.261,633.781,581.774,633.237,580.63z"/>
				<path style="fill:#84EBFE;" d="M737.352,357.552c-0.807-1.697-0.085-3.727,1.612-4.533c1.697-0.807,3.727-0.085,4.533,1.612
					c0.807,1.697,0.085,3.727-1.613,4.533C740.188,359.971,738.159,359.249,737.352,357.552z"/>
				<path style="fill:#84EBFE;" d="M817.22,327.722c-0.807-1.697-0.085-3.727,1.613-4.533c1.697-0.807,3.727-0.085,4.533,1.613
					c0.807,1.697,0.085,3.727-1.613,4.533C820.056,330.141,818.026,329.419,817.22,327.722z"/>
				<path style="fill:#84EBFE;" d="M821.615,266.48c-0.807-1.697-0.084-3.727,1.613-4.533c1.697-0.807,3.727-0.085,4.533,1.612
					c0.806,1.697,0.084,3.727-1.613,4.533C824.451,268.899,822.422,268.177,821.615,266.48z"/>
				<path style="fill:#84EBFE;" d="M888.728,311.737c-0.807-1.697-0.085-3.727,1.612-4.533c1.697-0.807,3.727-0.085,4.533,1.612
					c0.806,1.697,0.085,3.727-1.613,4.533C891.564,314.156,889.535,313.434,888.728,311.737z"/>
				<polyline style="fill:none;stroke:#84EBFE;stroke-width:0.25;stroke-miterlimit:10;" points="690.331,444.797 700.218,506.97 
					637.745,496.307 676.886,403.237 746.899,423.803 736.555,467.322 690.331,444.797 676.886,403.237 707.761,380.328 
					740.425,356.091 802.533,378.998 776.108,412.089 740.425,356.091 				"/>
				<polyline style="fill:none;stroke:#84EBFE;stroke-width:0.25;stroke-miterlimit:10;" points="836.457,342.884 820.162,326.266 
					740.425,356.091 836.457,342.884 908.357,316.463 832.815,305.879 820.162,326.266 802.272,379.354 795.922,294.005 
					776.108,412.089 				"/>
				<polygon style="fill:none;stroke:#84EBFE;stroke-width:0.25;stroke-miterlimit:10;" points="795.922,294.005 824.688,265.019 
					856.221,333.491 850.186,265.679 908.357,316.463 850.186,265.679 891.801,310.276 820.162,326.266 				"/>
				<polyline style="fill:none;stroke:#84EBFE;stroke-width:0.25;stroke-miterlimit:10;" points="836.89,342.419 856.221,333.491 
					891.801,310.276 				"/>
				<polyline style="fill:none;stroke:#84EBFE;stroke-width:0.25;stroke-miterlimit:10;" points="856.221,333.491 824.688,265.019 
					850.186,265.679 				"/>
				
					<line style="fill:none;stroke:#84EBFE;stroke-width:0.25;stroke-miterlimit:10;" x1="824.688" y1="265.019" x2="820.162" y2="326.266"/>
				<polyline style="fill:none;stroke:#84EBFE;stroke-width:0.25;stroke-miterlimit:10;" points="590.562,594.224 599.216,509.043 
					637.745,496.307 				"/>
				<polyline style="fill:none;stroke:#84EBFE;stroke-width:0.25;stroke-miterlimit:10;" points="661.589,541.136 590.562,594.224 
					637.745,496.307 661.589,541.136 700.218,506.97 647.54,445.345 736.555,467.322 740.425,356.091 746.899,423.803 
					690.331,444.797 637.745,496.307 661.589,541.136 599.216,509.043 635.123,579.257 557.951,566.038 568.342,624.958 
					599.216,509.043 				"/>
				
					<line style="fill:none;stroke:#84EBFE;stroke-width:0.25;stroke-miterlimit:10;" x1="558.554" y1="566.142" x2="599.216" y2="509.043"/>
			</g>
		</g>
	</g>
</g>
</svg>
